<svg width="200" height="200" viewBox="0 0 200 200" fill="none" xmlns="http://www.w3.org/2000/svg">
  <!-- Outer dark blue ring -->
  <circle cx="100" cy="100" r="90" stroke="#1e40af" stroke-width="12" fill="none"/>
  
  <!-- Inner dark blue circle -->
  <circle cx="100" cy="100" r="50" fill="#1e40af"/>
  
  <!-- White house icon in center -->
  <path d="M85 75 L100 60 L115 75 L115 95 L85 95 Z" fill="white"/>
  <rect x="95" y="85" width="10" height="15" fill="#1e40af"/>
  
  <!-- Six dark blue spokes extending from inner circle -->
  <g stroke="#1e40af" stroke-width="6" stroke-linecap="round">
    <!-- Top spoke -->
    <line x1="100" y1="50" x2="100" y2="20"/>
    <circle cx="100" cy="20" r="8" fill="#10b981"/>
    
    <!-- Top-right spoke -->
    <line x1="150" y1="50" x2="170" y2="30"/>
    <circle cx="170" cy="30" r="8" fill="#10b981"/>
    
    <!-- Bottom-right spoke -->
    <line x1="150" y1="150" x2="170" y2="170"/>
    <circle cx="170" cy="170" r="8" fill="#10b981"/>
    
    <!-- Bottom spoke -->
    <line x1="100" y1="150" x2="100" y2="180"/>
    <circle cx="100" cy="180" r="8" fill="#10b981"/>
    
    <!-- Bottom-left spoke -->
    <line x1="50" y1="150" x2="30" y2="170"/>
    <circle cx="30" cy="170" r="8" fill="#10b981"/>
    
    <!-- Top-left spoke -->
    <line x1="50" y1="50" x2="30" y2="30"/>
    <circle cx="30" cy="30" r="8" fill="#10b981"/>
  </g>
</svg>








